<svg width="286" height="572" viewBox="0 0 286 572" fill="none" xmlns="http://www.w3.org/2000/svg">
<path d="M143 235C159.376 235 174.098 244.982 180.159 260.195L282.351 516.695C287.26 529.017 285.741 542.971 278.298 553.948C270.855 564.926 258.454 571.5 245.192 571.5H40.8088C27.546 571.5 15.1456 564.926 7.70239 553.948C0.259101 542.971 -1.25923 529.017 3.64966 516.695L105.841 260.195L106.131 259.486C112.362 244.673 126.88 235 143 235ZM40.8088 531.5H245.192L143 275L40.8088 531.5ZM143 0C205.408 0.000146377 256 50.5919 256 113C256 175.408 205.408 226 143 226C80.5921 226 30.0002 175.408 30.0002 113C30.0002 50.5918 80.5921 0 143 0ZM143 40C102.683 40 70.0002 72.6832 70.0002 113C70.0002 153.317 102.683 186 143 186C183.317 186 216 153.317 216 113C216 72.6833 183.317 40.0001 143 40Z" fill="white"/>
</svg>
