<svg width="286" height="571" viewBox="0 0 286 571" fill="none" xmlns="http://www.w3.org/2000/svg">
<path d="M245.192 234.5C258.454 234.5 270.855 241.074 278.298 252.052C285.741 263.029 287.26 276.983 282.351 289.305L180.159 545.805L179.869 546.514C173.638 561.327 159.121 571 143 571C126.624 571 111.902 561.018 105.841 545.805L3.64966 289.305C-1.25924 276.983 0.259102 263.029 7.70239 252.052C15.1456 241.074 27.546 234.5 40.8088 234.5H245.192ZM143 531L245.192 274.5H40.8088L143 531ZM148 0C210.408 0.000148439 261 50.5919 261 113C261 175.408 210.408 226 148 226C85.5921 226 35.0002 175.408 35.0002 113C35.0002 50.5918 85.5921 0 148 0ZM148 40C107.683 40 75.0002 72.6832 75.0002 113C75.0002 153.317 107.683 186 148 186C188.317 186 221 153.317 221 113C221 72.6833 188.317 40.0001 148 40Z" fill="white"/>
</svg>
