<svg width="500" height="500" viewBox="0 0 500 500" fill="none" xmlns="http://www.w3.org/2000/svg">
<path d="M250 0C388.071 0 500 111.929 500 250C500 320.5 470.816 384.184 423.872 429.632C423.891 429.741 423.911 429.849 423.93 429.958C378.967 473.326 317.796 500 250.394 500C250.328 500 250.263 499.999 250.198 499.999C250.132 499.999 250.066 500 250 500C111.929 500 0 388.071 0 250C0 111.929 111.929 0 250 0ZM249.894 303C176.342 303 114.612 353.758 97.875 422.159C138.433 458.121 191.741 479.947 250.183 479.999C308.386 479.954 361.529 458.288 402.018 422.601C385.439 353.978 323.604 303 249.894 303ZM250 20C122.975 20 20 122.975 20 250C20 310.464 43.3316 365.478 81.4824 406.531C99.1096 350.43 143.994 306.402 200.614 289.972C170.386 272.77 150 240.267 150 203C150 147.772 194.772 103 250 103C305.228 103 350 147.772 350 203C350 240.297 329.581 272.822 299.312 290.013C355.925 306.492 400.782 350.566 418.357 406.703C456.603 365.631 480 310.548 480 250C480 122.975 377.025 20 250 20ZM250 123C205.817 123 170 158.817 170 203C170 247.183 205.817 283 250 283C294.183 283 330 247.183 330 203C330 158.817 294.183 123 250 123Z" fill="#38e"/>
</svg>
